<svg viewBox="0 0 19 18" fill="none" xmlns="http://www.w3.org/2000/svg">
<path d="M12.4688 17.4844L9 14.0156L10.4062 12.6094L12.4688 14.6719L17.5781 9.51562L18.9844 10.9219L12.4688 17.4844ZM10.8281 7.82812C10.0469 8.60938 9.10938 9 8.01562 9C6.92188 9 5.96875 8.60938 5.15625 7.82812C4.375 7.04688 3.98438 6.10938 3.98438 5.01562C3.98438 3.92188 4.375 2.98438 5.15625 2.20312C5.96875 1.39063 6.92188 0.984375 8.01562 0.984375C9.10938 0.984375 10.0469 1.39063 10.8281 2.20312C11.6094 2.98438 12 3.92188 12 5.01562C12 6.10938 11.6094 7.04688 10.8281 7.82812ZM6 14.0156L9 17.0156H0V15C0 13.8125 0.90625 12.8594 2.71875 12.1406C4.5625 11.3906 6.32812 11.0156 8.01562 11.0156C8.48438 11.0156 8.8125 11.0312 9 11.0625L6 14.0156Z" fill="#95FF4A"/>
</svg>
